<mxfile host="app.diagrams.net" modified="2022-08-16T13:14:51.016Z" agent="5.0 (Windows NT 10.0; WOW64) AppleWebKit/537.36 (KHTML, like Gecko) Chrome/103.0.5060.134 Safari/537.36 OPR/89.0.4447.91 (Edition Yx)" etag="SIFaSK_w-Kvmk-IJdXEL" version="20.2.3" type="github">
  <diagram id="tSQh2qXFKzJCv8DqPP2f" name="Страница 1">
    <mxGraphModel dx="868" dy="493" grid="1" gridSize="10" guides="1" tooltips="1" connect="1" arrows="1" fold="1" page="1" pageScale="1" pageWidth="827" pageHeight="1169" math="0" shadow="0">
      <root>
        <mxCell id="0" />
        <mxCell id="1" parent="0" />
        <mxCell id="ZPYo78vsdB8HeNrnGFiV-3" style="edgeStyle=orthogonalEdgeStyle;rounded=0;orthogonalLoop=1;jettySize=auto;html=1;exitX=0.5;exitY=1;exitDx=0;exitDy=0;entryX=0.5;entryY=0;entryDx=0;entryDy=0;fontSize=24;" edge="1" parent="1" source="ZPYo78vsdB8HeNrnGFiV-1" target="ZPYo78vsdB8HeNrnGFiV-2">
          <mxGeometry relative="1" as="geometry" />
        </mxCell>
        <mxCell id="ZPYo78vsdB8HeNrnGFiV-1" value="&lt;font style=&quot;font-size: 24px;&quot;&gt;массив M&lt;br&gt;размерность N&lt;br&gt;sum = 0&lt;br&gt;i = 0&lt;br&gt;&lt;/font&gt;" style="rounded=0;whiteSpace=wrap;html=1;" vertex="1" parent="1">
          <mxGeometry x="354" y="60" width="206" height="120" as="geometry" />
        </mxCell>
        <mxCell id="ZPYo78vsdB8HeNrnGFiV-6" style="edgeStyle=orthogonalEdgeStyle;rounded=0;orthogonalLoop=1;jettySize=auto;html=1;exitX=1;exitY=0.5;exitDx=0;exitDy=0;entryX=0;entryY=0.5;entryDx=0;entryDy=0;fontSize=24;" edge="1" parent="1" source="ZPYo78vsdB8HeNrnGFiV-2" target="ZPYo78vsdB8HeNrnGFiV-5">
          <mxGeometry relative="1" as="geometry" />
        </mxCell>
        <mxCell id="ZPYo78vsdB8HeNrnGFiV-7" value="No" style="edgeLabel;html=1;align=center;verticalAlign=middle;resizable=0;points=[];fontSize=24;" vertex="1" connectable="0" parent="ZPYo78vsdB8HeNrnGFiV-6">
          <mxGeometry x="-0.7178" y="1" relative="1" as="geometry">
            <mxPoint as="offset" />
          </mxGeometry>
        </mxCell>
        <mxCell id="ZPYo78vsdB8HeNrnGFiV-10" value="Yes&lt;br&gt;" style="edgeStyle=orthogonalEdgeStyle;rounded=0;orthogonalLoop=1;jettySize=auto;html=1;exitX=0.5;exitY=1;exitDx=0;exitDy=0;fontSize=24;" edge="1" parent="1" source="ZPYo78vsdB8HeNrnGFiV-2" target="ZPYo78vsdB8HeNrnGFiV-9">
          <mxGeometry relative="1" as="geometry" />
        </mxCell>
        <mxCell id="ZPYo78vsdB8HeNrnGFiV-2" value="i &amp;lt; N" style="rhombus;whiteSpace=wrap;html=1;fontSize=24;" vertex="1" parent="1">
          <mxGeometry x="387" y="240" width="140" height="120" as="geometry" />
        </mxCell>
        <mxCell id="ZPYo78vsdB8HeNrnGFiV-5" value="sum / N" style="rounded=0;whiteSpace=wrap;html=1;fontSize=24;" vertex="1" parent="1">
          <mxGeometry x="620" y="240" width="190" height="120" as="geometry" />
        </mxCell>
        <mxCell id="ZPYo78vsdB8HeNrnGFiV-14" style="edgeStyle=orthogonalEdgeStyle;rounded=0;orthogonalLoop=1;jettySize=auto;html=1;exitX=0;exitY=0.5;exitDx=0;exitDy=0;entryX=0.5;entryY=1;entryDx=0;entryDy=0;fontSize=24;" edge="1" parent="1" source="ZPYo78vsdB8HeNrnGFiV-9" target="ZPYo78vsdB8HeNrnGFiV-11">
          <mxGeometry relative="1" as="geometry" />
        </mxCell>
        <mxCell id="ZPYo78vsdB8HeNrnGFiV-9" value="sum = sum + M[i]" style="rounded=0;whiteSpace=wrap;html=1;fontSize=24;" vertex="1" parent="1">
          <mxGeometry x="355.5" y="430" width="203" height="100" as="geometry" />
        </mxCell>
        <mxCell id="ZPYo78vsdB8HeNrnGFiV-13" style="edgeStyle=orthogonalEdgeStyle;rounded=0;orthogonalLoop=1;jettySize=auto;html=1;exitX=0.5;exitY=0;exitDx=0;exitDy=0;entryX=0;entryY=0.5;entryDx=0;entryDy=0;fontSize=24;" edge="1" parent="1" source="ZPYo78vsdB8HeNrnGFiV-11" target="ZPYo78vsdB8HeNrnGFiV-2">
          <mxGeometry relative="1" as="geometry" />
        </mxCell>
        <mxCell id="ZPYo78vsdB8HeNrnGFiV-11" value="i = i + 1" style="rounded=0;whiteSpace=wrap;html=1;fontSize=24;" vertex="1" parent="1">
          <mxGeometry x="80" y="340" width="180" height="80" as="geometry" />
        </mxCell>
      </root>
    </mxGraphModel>
  </diagram>
</mxfile>
